ply
format ascii 1.0
comment VCGLIB generated
element vertex 778
property float x
property float y
property float z
property float nx
property float ny
property float nz
property uchar red
property uchar green
property uchar blue
property uchar alpha
element face 0
property list uchar int vertex_indices
end_header
-0.28154 0.37731 -1 0 0 0 255 255 255 255 
-0.123176 -0.925569 -1 0 0 0 255 255 255 255 
0.225461 -0.165743 -1 0 0 0 255 255 255 255 
0.542432 0.298912 -1 0 0 0 255 255 255 255 
0.0441715 -0.587094 -1 0 0 0 255 255 255 255 
-0.656533 0.0246733 -1 0 0 0 255 255 255 255 
0.207035 0.212354 -1 0 0 0 255 255 255 255 
0.341893 0.144653 -1 0 0 0 255 255 255 255 
0.0700782 -0.982914 -1 0 0 0 255 255 255 255 
-0.508179 0.287503 -1 0 0 0 255 255 255 255 
0.382771 0.25093 -1 0 0 0 255 255 255 255 
0.884977 0.0137721 -1 0 0 0 255 255 255 255 
-0.303631 -0.422116 -1 0 0 0 255 255 255 255 
0.891211 0.0584188 -1 0 0 0 255 255 255 255 
-0.272944 -0.921942 -1 0 0 0 255 255 255 255 
0.323843 -0.933189 -1 0 0 0 255 255 255 255 
-0.683226 -0.152701 -1 0 0 0 255 255 255 255 
0.296032 -0.953482 -1 0 0 0 255 255 255 255 
-0.610123 0.122164 -1 0 0 0 255 255 255 255 
0.220584 0.097452 -1 0 0 0 255 255 255 255 
0.945254 0.220742 -1 0 0 0 255 255 255 255 
0.128707 -0.212039 -1 0 0 0 255 255 255 255 
-0.36578 -0.911998 -1 0 0 0 255 255 255 255 
-0.95924 0.0864196 -1 0 0 0 255 255 255 255 
-0.300276 -0.768565 -1 0 0 0 255 255 255 255 
0.545623 0.133555 -1 0 0 0 255 255 255 255 
-0.706727 -0.68511 -1 0 0 0 255 255 255 255 
-0.626632 -0.694317 -1 0 0 0 255 255 255 255 
-0.692054 -0.216975 -1 0 0 0 255 255 255 255 
-0.384695 -0.867969 -1 0 0 0 255 255 255 255 
-0.574026 0.176988 -1 0 0 0 255 255 255 255 
0.231946 -0.542952 -1 0 0 0 255 255 255 255 
-0.216037 -0.84993 -1 0 0 0 255 255 255 255 
-0.790634 -0.17309 -1 0 0 0 255 255 255 255 
0.759588 0.102058 -1 0 0 0 255 255 255 255 
-0.197393 -0.991163 -1 0 0 0 255 255 255 255 
-0.51344 -0.835952 -1 0 0 0 255 255 255 255 
0.260423 -0.02536 -1 0 0 0 255 255 255 255 
0.869187 0.196279 -1 0 0 0 255 255 255 255 
0.296468 0.242555 -1 0 0 0 255 255 255 255 
-0.421506 -0.671521 -1 0 0 0 255 255 255 255 
0.0291763 -0.484217 -1 0 0 0 255 255 255 255 
0.680834 0.470051 -1 0 0 0 255 255 255 255 
-0.438848 -0.900862 -1 0 0 0 255 255 255 255 
-0.880787 0.0595055 -1 0 0 0 255 255 255 255 
-0.541943 -0.694898 -1 0 0 0 255 255 255 255 
0.261319 -0.636502 -1 0 0 0 255 255 255 255 
-0.183743 -0.373499 -1 0 0 0 255 255 255 255 
0.494146 0.0297608 -1 0 0 0 255 255 255 255 
-0.652915 -0.793622 -1 0 0 0 255 255 255 255 
-0.234468 -0.398212 -1 0 0 0 255 255 255 255 
-0.498278 -0.660695 -1 0 0 0 255 255 255 255 
-0.423817 -0.506623 -1 0 0 0 255 255 255 255 
0.105309 -0.159772 -1 0 0 0 255 255 255 255 
-0.595715 -0.625678 -1 0 0 0 255 255 255 255 
-0.501586 0.362987 -1 0 0 0 255 255 255 255 
0.304885 0.296798 -1 0 0 0 255 255 255 255 
-0.831904 0.233346 -1 0 0 0 255 255 255 255 
0.246271 -0.660762 -1 0 0 0 255 255 255 255 
0.0107922 -0.935325 -1 0 0 0 255 255 255 255 
0.982697 0.232905 -1 0 0 0 255 255 255 255 
-0.025627 -0.962028 -1 0 0 0 255 255 255 255 
-0.144114 -0.913835 -1 0 0 0 255 255 255 255 
-0.278075 -0.94032 -1 0 0 0 255 255 255 255 
0.976511 0.111587 -1 0 0 0 255 255 255 255 
-0.715159 0.246911 -1 0 0 0 255 255 255 255 
0.274075 -0.617272 -1 0 0 0 255 255 255 255 
-0.464285 -0.527873 -1 0 0 0 255 255 255 255 
-0.316868 -0.873472 -1 0 0 0 255 255 255 255 
0.793573 0.183973 -1 0 0 0 255 255 255 255 
-0.893995 0.0664588 -1 0 0 0 255 255 255 255 
-0.0547524 -0.407907 -1 0 0 0 255 255 255 255 
-0.499355 0.392281 -1 0 0 0 255 255 255 255 
-0.889648 0.0470037 -1 0 0 0 255 255 255 255 
-0.601361 -0.613676 -1 0 0 0 255 255 255 255 
-0.0874161 -0.951408 -1 0 0 0 255 255 255 255 
-0.166284 -0.938091 -1 0 0 0 255 255 255 255 
-0.182032 -0.964711 -1 0 0 0 255 255 255 255 
-0.602071 -0.68894 -1 0 0 0 255 255 255 255 
-0.367815 -0.161093 -1 0 0 0 255 255 255 255 
-0.510369 -0.547008 -1 0 0 0 255 255 255 255 
0.799469 0.135656 -1 0 0 0 255 255 255 255 
0.262242 -0.588686 -1 0 0 0 255 255 255 255 
-0.187645 -0.916416 -1 0 0 0 255 255 255 255 
-0.212436 -0.533635 -1 0 0 0 255 255 255 255 
-0.604904 -0.612031 -1 0 0 0 255 255 255 255 
-0.181084 0.397608 -1 0 0 0 255 255 255 255 
-0.0243317 -0.254209 -1 0 0 0 255 255 255 255 
0.0971086 -0.897772 -1 0 0 0 255 255 255 255 
-0.0382998 -0.820628 -1 0 0 0 255 255 255 255 
-0.228813 -0.789075 -1 0 0 0 255 255 255 255 
0.614523 0.106514 -1 0 0 0 255 255 255 255 
-0.301975 -0.190179 -1 0 0 0 255 255 255 255 
-0.124139 -0.923198 -1 0 0 0 255 255 255 255 
-0.913227 0.137738 -1 0 0 0 255 255 255 255 
0.200973 -0.505464 -1 0 0 0 255 255 255 255 
-0.811642 0.225365 -1 0 0 0 255 255 255 255 
-0.324302 0.386073 -1 0 0 0 255 255 255 255 
-0.0376086 -1.00461 -1 0 0 0 255 255 255 255 
-0.412033 -0.523469 -1 0 0 0 255 255 255 255 
0.3551 0.351053 -1 0 0 0 255 255 255 255 
-0.637764 -0.702961 -1 0 0 0 255 255 255 255 
-0.392437 -0.479282 -1 0 0 0 255 255 255 255 
-0.378578 -0.733603 -1 0 0 0 255 255 255 255 
0.599319 0.163185 -1 0 0 0 255 255 255 255 
-0.501133 -0.79412 -1 0 0 0 255 255 255 255 
-0.593216 -0.69954 -1 0 0 0 255 255 255 255 
0.0382555 -0.356557 -1 0 0 0 255 255 255 255 
-0.919999 0.154996 -1 0 0 0 255 255 255 255 
-0.751768 -0.116674 -1 0 0 0 255 255 255 255 
-0.474376 -0.537585 -1 0 0 0 255 255 255 255 
-0.56534 0.0403918 -1 0 0 0 255 255 255 255 
-0.106504 -0.922773 -1 0 0 0 255 255 255 255 
-0.483429 -0.859984 -1 0 0 0 255 255 255 255 
0.0939347 -0.984096 -1 0 0 0 255 255 255 255 
-0.79346 0.0722909 -1 0 0 0 255 255 255 255 
0.301854 -0.756833 -1 0 0 0 255 255 255 255 
-0.211578 -0.233846 -1 0 0 0 255 255 255 255 
-0.178481 -0.244109 -1 0 0 0 255 255 255 255 
-0.546166 -0.203993 -1 0 0 0 255 255 255 255 
-0.866517 0.108402 -1 0 0 0 255 255 255 255 
-0.553361 -0.579254 -1 0 0 0 255 255 255 255 
-0.119633 -0.783486 -1 0 0 0 255 255 255 255 
-0.624365 -0.731385 -1 0 0 0 255 255 255 255 
-0.404704 -0.869128 -1 0 0 0 255 255 255 255 
-0.768942 0.269758 -1 0 0 0 255 255 255 255 
-0.901341 0.0430299 -1 0 0 0 255 255 255 255 
-0.866061 0.145285 -1 0 0 0 255 255 255 255 
-0.998706 0.094661 -1 0 0 0 255 255 255 255 
0.630712 0.0874129 -1 0 0 0 255 255 255 255 
0.303368 0.380869 -1 0 0 0 255 255 255 255 
-0.584295 -0.597438 -1 0 0 0 255 255 255 255 
-0.332167 -0.445988 -1 0 0 0 255 255 255 255 
0.341687 -0.796707 -1 0 0 0 255 255 255 255 
-0.446992 -0.176975 -1 0 0 0 255 255 255 255 
0.278485 -0.784383 -1 0 0 0 255 255 255 255 
0.27683 -0.760656 -1 0 0 0 255 255 255 255 
-0.201537 -0.460011 -1 0 0 0 255 255 255 255 
-0.764705 -0.0280961 -1 0 0 0 255 255 255 255 
0.222269 -0.627416 -1 0 0 0 255 255 255 255 
0.00531404 -0.958977 -1 0 0 0 255 255 255 255 
-0.00864829 -0.96025 -1 0 0 0 255 255 255 255 
-0.394476 0.342054 -1 0 0 0 255 255 255 255 
0.625545 0.0610177 -1 0 0 0 255 255 255 255 
0.405899 -0.102174 -1 0 0 0 255 255 255 255 
0.153853 -0.901097 -1 0 0 0 255 255 255 255 
-0.494734 -0.822578 -1 0 0 0 255 255 255 255 
-0.295064 -0.412584 -1 0 0 0 255 255 255 255 
0.202336 -0.0487492 -1 0 0 0 255 255 255 255 
-0.760072 -0.115542 -1 0 0 0 255 255 255 255 
0.275117 0.364264 -1 0 0 0 255 255 255 255 
0.675263 0.251839 -1 0 0 0 255 255 255 255 
-0.5366 -0.803687 -1 0 0 0 255 255 255 255 
-0.66203 0.371102 -1 0 0 0 255 255 255 255 
-0.188658 -0.452402 -1 0 0 0 255 255 255 255 
-0.255586 -0.5531 -1 0 0 0 255 255 255 255 
0.45078 0.103836 -1 0 0 0 255 255 255 255 
0.250724 -0.858507 -1 0 0 0 255 255 255 255 
-0.201409 -0.928823 -1 0 0 0 255 255 255 255 
-0.344928 0.373552 -1 0 0 0 255 255 255 255 
-0.536522 -0.783805 -1 0 0 0 255 255 255 255 
0.26944 -0.886895 -1 0 0 0 255 255 255 255 
0.926933 0.115589 -1 0 0 0 255 255 255 255 
-0.326638 -0.79872 -1 0 0 0 255 255 255 255 
-0.188584 -0.405671 -1 0 0 0 255 255 255 255 
-0.430358 -0.235883 -1 0 0 0 255 255 255 255 
-0.841315 0.198864 -1 0 0 0 255 255 255 255 
-0.130122 -0.352506 -1 0 0 0 255 255 255 255 
-0.799058 -0.0718898 -1 0 0 0 255 255 255 255 
-0.569122 0.219763 -1 0 0 0 255 255 255 255 
-0.594881 -0.815414 -1 0 0 0 255 255 255 255 
-0.380037 -0.126772 -1 0 0 0 255 255 255 255 
-0.403579 -0.482446 -1 0 0 0 255 255 255 255 
-0.564388 -0.819082 -1 0 0 0 255 255 255 255 
0.25912 -0.646429 -1 0 0 0 255 255 255 255 
-0.0600198 -0.964356 -1 0 0 0 255 255 255 255 
0.557263 0.292495 -1 0 0 0 255 255 255 255 
-0.332816 -0.147412 -1 0 0 0 255 255 255 255 
-0.288567 -0.264085 -1 0 0 0 255 255 255 255 
-0.81444 0.0898268 -1 0 0 0 255 255 255 255 
-0.502075 -0.527339 -1 0 0 0 255 255 255 255 
-0.475887 -0.56625 -1 0 0 0 255 255 255 255 
-0.922833 -0.0191755 -1 0 0 0 255 255 255 255 
-0.382557 -0.859444 -1 0 0 0 255 255 255 255 
-0.279779 -0.429951 -1 0 0 0 255 255 255 255 
0.284483 -0.682145 -1 0 0 0 255 255 255 255 
0.0499485 -0.594565 -1 0 0 0 255 255 255 255 
0.328485 -0.187535 -1 0 0 0 255 255 255 255 
-0.77159 -0.0987469 -1 0 0 0 255 255 255 255 
-0.791006 -0.101224 -1 0 0 0 255 255 255 255 
-0.725654 -0.036989 -1 0 0 0 255 255 255 255 
-0.725525 -0.110708 -1 0 0 0 255 255 255 255 
0.282966 -0.682813 -1 0 0 0 255 255 255 255 
0.42202 -0.140709 -1 0 0 0 255 255 255 255 
0.71226 0.411555 -1 0 0 0 255 255 255 255 
0.597716 0.365582 -1 0 0 0 255 255 255 255 
-0.540103 -0.871911 -1 0 0 0 255 255 255 255 
0.0684808 -0.802908 -1 0 0 0 255 255 255 255 
0.10964 -0.961058 -1 0 0 0 255 255 255 255 
-0.597312 -0.677288 -1 0 0 0 255 255 255 255 
-0.0284607 -1.00026 -1 0 0 0 255 255 255 255 
0.50344 0.177386 -1 0 0 0 255 255 255 255 
0.170706 0.288577 -1 0 0 0 255 255 255 255 
-0.695778 0.149426 -1 0 0 0 255 255 255 255 
-0.443534 -0.532717 -1 0 0 0 255 255 255 255 
-0.483083 0.402347 -1 0 0 0 255 255 255 255 
-0.242855 -0.933295 -1 0 0 0 255 255 255 255 
0.0426761 -0.544208 -1 0 0 0 255 255 255 255 
0.167534 -0.046297 -1 0 0 0 255 255 255 255 
0.743392 0.495681 -1 0 0 0 255 255 255 255 
-0.84996 0.215167 -1 0 0 0 255 255 255 255 
-0.536597 -0.0659188 -1 0 0 0 255 255 255 255 
-0.641635 -0.797658 -1 0 0 0 255 255 255 255 
-0.894313 -0.0120556 -1 0 0 0 255 255 255 255 
-0.51822 -0.580374 -1 0 0 0 255 255 255 255 
0.928171 0.199782 -1 0 0 0 255 255 255 255 
-0.237058 -0.407108 -1 0 0 0 255 255 255 255 
-0.159995 -0.800934 -1 0 0 0 255 255 255 255 
0.339619 -0.772197 -1 0 0 0 255 255 255 255 
-0.105324 -0.446753 -1 0 0 0 255 255 255 255 
0.60758 0.181708 -1 0 0 0 255 255 255 255 
-0.797376 -0.122285 -1 0 0 0 255 255 255 255 
0.0342423 -0.980042 -1 0 0 0 255 255 255 255 
0.0947954 -0.245522 -1 0 0 0 255 255 255 255 
0.186045 0.236829 -1 0 0 0 255 255 255 255 
-0.452288 -0.86706 -1 0 0 0 255 255 255 255 
0.883146 0.0571097 -1 0 0 0 255 255 255 255 
-0.801362 0.0728023 -1 0 0 0 255 255 255 255 
-0.336108 -0.896083 -1 0 0 0 255 255 255 255 
-0.59086 -0.712909 -1 0 0 0 255 255 255 255 
-0.679282 -0.679522 -1 0 0 0 255 255 255 255 
-0.297539 -0.456204 -1 0 0 0 255 255 255 255 
-0.507156 -0.0959277 -1 0 0 0 255 255 255 255 
-0.63445 -0.636732 -1 0 0 0 255 255 255 255 
-0.759614 0.0195402 -1 0 0 0 255 255 255 255 
-0.516028 -0.878851 -1 0 0 0 255 255 255 255 
-0.435767 -0.5253 -1 0 0 0 255 255 255 255 
-0.129339 -0.282225 -1 0 0 0 255 255 255 255 
-0.282271 -0.252099 -1 0 0 0 255 255 255 255 
-0.948015 -0.0109281 -1 0 0 0 255 255 255 255 
0.18508 0.338673 -1 0 0 0 255 255 255 255 
-0.811774 0.0576881 -1 0 0 0 255 255 255 255 
-0.0207791 -0.953221 -1 0 0 0 255 255 255 255 
-0.194747 -0.928789 -1 0 0 0 255 255 255 255 
0.309583 -0.102777 -1 0 0 0 255 255 255 255 
0.196995 -0.588594 -1 0 0 0 255 255 255 255 
0.0534245 -0.962274 -1 0 0 0 255 255 255 255 
0.362596 0.202497 -1 0 0 0 255 255 255 255 
0.0252714 -0.892299 -1 0 0 0 255 255 255 255 
-0.556047 -0.0280594 -1 0 0 0 255 255 255 255 
-0.431601 -0.502673 -1 0 0 0 255 255 255 255 
0.62365 -0.144495 -1 0 0 0 255 255 255 255 
0.247942 0.00096357 -1 0 0 0 255 255 255 255 
-0.57029 0.177096 -1 0 0 0 255 255 255 255 
-0.410443 -0.489483 -1 0 0 0 255 255 255 255 
-0.811012 0.246995 -1 0 0 0 255 255 255 255 
-0.385546 -0.0959181 -1 0 0 0 255 255 255 255 
-0.902165 -0.0833509 -1 0 0 0 255 255 255 255 
-0.511444 -0.572894 -1 0 0 0 255 255 255 255 
1.00261 0.243037 -1 0 0 0 255 255 255 255 
-0.460537 -0.925919 -1 0 0 0 255 255 255 255 
-0.0574089 -0.959065 -1 0 0 0 255 255 255 255 
-0.980098 0.0044335 -1 0 0 0 255 255 255 255 
-0.317353 -0.14581 -1 0 0 0 255 255 255 255 
-0.947877 0.10476 -1 0 0 0 255 255 255 255 
-0.518172 -0.57895 -1 0 0 0 255 255 255 255 
-0.0227124 -0.881828 -1 0 0 0 255 255 255 255 
-0.801359 -0.0201688 -1 0 0 0 255 255 255 255 
0.262101 -0.735954 -1 0 0 0 255 255 255 255 
-0.121996 -0.951006 -1 0 0 0 255 255 255 255 
0.311028 -0.725811 -1 0 0 0 255 255 255 255 
-0.911937 0.0912445 -1 0 0 0 255 255 255 255 
-0.132763 -0.444502 -1 0 0 0 255 255 255 255 
-0.42086 -0.787735 -1 0 0 0 255 255 255 255 
0.555439 -0.0789181 -1 0 0 0 255 255 255 255 
-0.190682 -0.764248 -1 0 0 0 255 255 255 255 
0.269816 -0.922867 -1 0 0 0 255 255 255 255 
0.379299 0.249693 -1 0 0 0 255 255 255 255 
-0.57381 -0.806495 -1 0 0 0 255 255 255 255 
0.532286 0.232052 -1 0 0 0 255 255 255 255 
0.446185 0.124868 -1 0 0 0 255 255 255 255 
-0.727736 0.0878492 -1 0 0 0 255 255 255 255 
-0.508828 0.240552 -1 0 0 0 255 255 255 255 
0.474715 -0.0554419 -1 0 0 0 255 255 255 255 
-0.838357 0.0443407 -1 0 0 0 255 255 255 255 
-0.673295 -0.767553 -1 0 0 0 255 255 255 255 
0.660994 0.229516 -1 0 0 0 255 255 255 255 
0.123475 -0.691204 -1 0 0 0 255 255 255 255 
-0.400546 0.436724 -1 0 0 0 255 255 255 255 
0.97134 0.175137 -1 0 0 0 255 255 255 255 
-0.616808 0.0838422 -1 0 0 0 255 255 255 255 
-0.463022 -0.51363 -1 0 0 0 255 255 255 255 
0.14035 -0.944395 -1 0 0 0 255 255 255 255 
0.886873 0.177179 -1 0 0 0 255 255 255 255 
0.0946061 -0.248754 -1 0 0 0 255 255 255 255 
0.927936 0.15399 -1 0 0 0 255 255 255 255 
0.254875 -0.170702 -1 0 0 0 255 255 255 255 
0.136739 -0.930919 -1 0 0 0 255 255 255 255 
-0.733986 -0.1272 -1 0 0 0 255 255 255 255 
0.0894547 -0.232915 -1 0 0 0 255 255 255 255 
-0.243944 0.419695 -1 0 0 0 255 255 255 255 
0.618661 0.411942 -1 0 0 0 255 255 255 255 
-0.0676263 -0.401985 -1 0 0 0 255 255 255 255 
-0.319745 -0.882696 -1 0 0 0 255 255 255 255 
-0.484512 0.417766 -1 0 0 0 255 255 255 255 
-0.856009 0.138341 -1 0 0 0 255 255 255 255 
0.177924 -0.792476 -1 0 0 0 255 255 255 255 
-0.881804 0.163338 -1 0 0 0 255 255 255 255 
0.309787 -0.144632 -1 0 0 0 255 255 255 255 
0.1139 -0.480634 -1 0 0 0 255 255 255 255 
0.253782 -0.798691 -1 0 0 0 255 255 255 255 
0.797831 -0.0974887 -1 0 0 0 255 255 255 255 
-0.758781 0.293613 -1 0 0 0 255 255 255 255 
-0.42558 -0.108616 -1 0 0 0 255 255 255 255 
0.0666984 -0.993341 -1 0 0 0 255 255 255 255 
0.99971 0.133863 -1 0 0 0 255 255 255 255 
-0.576501 -0.65937 -1 0 0 0 255 255 255 255 
-0.865816 0.159568 -1 0 0 0 255 255 255 255 
-0.56205 0.323112 -1 0 0 0 255 255 255 255 
0.349797 -0.902255 -1 0 0 0 255 255 255 255 
-0.265944 -0.753071 -1 0 0 0 255 255 255 255 
0.341664 -0.72716 -1 0 0 0 255 255 255 255 
-0.788267 -0.0868285 -1 0 0 0 255 255 255 255 
0.632738 0.435286 -1 0 0 0 255 255 255 255 
0.276485 -0.661393 -1 0 0 0 255 255 255 255 
-0.122898 -0.809977 -1 0 0 0 255 255 255 255 
0.303716 -0.693053 -1 0 0 0 255 255 255 255 
0.846113 0.136058 -1 0 0 0 255 255 255 255 
0.217415 -0.628213 -1 0 0 0 255 255 255 255 
0.198498 0.180051 -1 0 0 0 255 255 255 255 
-0.873475 -0.0982181 -1 0 0 0 255 255 255 255 
-0.897798 0.162661 -1 0 0 0 255 255 255 255 
0.434191 0.156515 -1 0 0 0 255 255 255 255 
-0.277239 -0.441616 -1 0 0 0 255 255 255 255 
0.166153 -0.461119 -1 0 0 0 255 255 255 255 
-0.285657 -0.415535 -1 0 0 0 255 255 255 255 
-0.794893 0.150117 -1 0 0 0 255 255 255 255 
-0.833401 -0.103962 -1 0 0 0 255 255 255 255 
0.773857 0.461142 -1 0 0 0 255 255 255 255 
-0.501499 -0.86948 -1 0 0 0 255 255 255 255 
0.257342 -0.583541 -1 0 0 0 255 255 255 255 
-0.357871 -0.440148 -1 0 0 0 255 255 255 255 
-0.995107 -0.0102245 -1 0 0 0 255 255 255 255 
-0.31728 -0.407061 -1 0 0 0 255 255 255 255 
-0.420675 0.364032 -1 0 0 0 255 255 255 255 
-0.0441289 -0.95926 -1 0 0 0 255 255 255 255 
-0.264601 -0.401998 -1 0 0 0 255 255 255 255 
0.200419 -0.606467 -1 0 0 0 255 255 255 255 
0.0626686 -0.972182 -1 0 0 0 255 255 255 255 
-0.657814 -0.236222 -1 0 0 0 255 255 255 255 
-0.590004 -0.667686 -1 0 0 0 255 255 255 255 
-0.671297 -0.0920061 -1 0 0 0 255 255 255 255 
-0.396427 -0.476336 -1 0 0 0 255 255 255 255 
-0.805328 0.273891 -1 0 0 0 255 255 255 255 
0.271823 0.0587546 -1 0 0 0 255 255 255 255 
-0.565289 -0.599782 -1 0 0 0 255 255 255 255 
-0.58694 -0.6026 -1 0 0 0 255 255 255 255 
-0.282689 -0.936811 -1 0 0 0 255 255 255 255 
-0.577967 -0.786663 -1 0 0 0 255 255 255 255 
0.118968 -0.983423 -1 0 0 0 255 255 255 255 
-0.0636712 -0.936689 -1 0 0 0 255 255 255 255 
0.502379 0.155995 -1 0 0 0 255 255 255 255 
-0.836785 -0.108523 -1 0 0 0 255 255 255 255 
-0.647006 -0.750749 -1 0 0 0 255 255 255 255 
0.837097 -0.0199399 -1 0 0 0 255 255 255 255 
0.320823 -0.860204 -1 0 0 0 255 255 255 255 
-0.882696 -0.0712582 -1 0 0 0 255 255 255 255 
0.231595 -0.0843336 -1 0 0 0 255 255 255 255 
-0.344474 0.420659 -1 0 0 0 255 255 255 255 
-0.970667 0.0257382 -1 0 0 0 255 255 255 255 
0.252993 -0.717259 -1 0 0 0 255 255 255 255 
-0.818402 0.154767 -1 0 0 0 255 255 255 255 
0.322433 -0.0875321 -1 0 0 0 255 255 255 255 
-0.49612 -0.558237 -1 0 0 0 255 255 255 255 
-0.643273 0.133323 -1 0 0 0 255 255 255 255 
0.39465 0.137198 -1 0 0 0 255 255 255 255 
0.582865 0.240779 -1 0 0 0 255 255 255 255 
-0.369196 -0.926548 -1 0 0 0 255 255 255 255 
0.821197 0.0756801 -1 0 0 0 255 255 255 255 
0.284125 -0.632998 -1 0 0 0 255 255 255 255 
0.445057 0.102171 -1 0 0 0 255 255 255 255 
-0.222718 -0.508218 -1 0 0 0 255 255 255 255 
0.586321 -0.00609084 -1 0 0 0 255 255 255 255 
-0.373565 -0.893912 -1 0 0 0 255 255 255 255 
-0.432891 -0.153428 -1 0 0 0 255 255 255 255 
0.0333147 -0.975447 -1 0 0 0 255 255 255 255 
-0.238735 -0.115892 -1 0 0 0 255 255 255 255 
0.236741 0.250108 -1 0 0 0 255 255 255 255 
-0.801677 -0.010423 -1 0 0 0 255 255 255 255 
0.359168 -0.0124843 -1 0 0 0 255 255 255 255 
0.158787 -0.109593 -1 0 0 0 255 255 255 255 
-0.859716 0.0869046 -1 0 0 0 255 255 255 255 
0.304208 -0.666963 -1 0 0 0 255 255 255 255 
-0.805744 -0.0615319 -1 0 0 0 255 255 255 255 
0.776945 0.019389 -1 0 0 0 255 255 255 255 
0.637507 0.254177 -1 0 0 0 255 255 255 255 
-0.577336 -0.797696 -1 0 0 0 255 255 255 255 
-0.950659 -0.0333804 -1 0 0 0 255 255 255 255 
-0.959064 0.104585 -1 0 0 0 255 255 255 255 
-0.501772 -0.647459 -1 0 0 0 255 255 255 255 
-0.290969 -0.925714 -1 0 0 0 255 255 255 255 
-0.838729 0.131425 -1 0 0 0 255 255 255 255 
-0.283062 -0.909792 -1 0 0 0 255 255 255 255 
0.308991 -0.688882 -1 0 0 0 255 255 255 255 
-0.317671 -0.74163 -1 0 0 0 255 255 255 255 
-0.209634 -0.838648 -1 0 0 0 255 255 255 255 
0.14499 -0.658971 -1 0 0 0 255 255 255 255 
0.0801433 -0.631597 -1 0 0 0 255 255 255 255 
-0.350155 -0.212273 -1 0 0 0 255 255 255 255 
-0.751007 -0.0760113 -1 0 0 0 255 255 255 255 
0.295412 -0.788622 -1 0 0 0 255 255 255 255 
0.211753 -0.579902 -1 0 0 0 255 255 255 255 
0.102023 -0.566957 -1 0 0 0 255 255 255 255 
-0.715977 -0.130381 -1 0 0 0 255 255 255 255 
-0.152414 -0.918802 -1 0 0 0 255 255 255 255 
-0.7686 0.034674 -1 0 0 0 255 255 255 255 
-0.0257919 -0.948269 -1 0 0 0 255 255 255 255 
-0.112211 -0.992168 -1 0 0 0 255 255 255 255 
-0.443247 -0.85241 -1 0 0 0 255 255 255 255 
-0.800723 0.0151775 -1 0 0 0 255 255 255 255 
-0.582745 0.375454 -1 0 0 0 255 255 255 255 
0.602891 -0.16774 -1 0 0 0 255 255 255 255 
-0.611797 -0.734969 -1 0 0 0 255 255 255 255 
0.628774 -0.049387 -1 0 0 0 255 255 255 255 
0.242057 0.396189 -1 0 0 0 255 255 255 255 
-0.341636 -0.276633 -1 0 0 0 255 255 255 255 
-0.836801 0.202312 -1 0 0 0 255 255 255 255 
-0.171786 0.415116 -1 0 0 0 255 255 255 255 
-0.971875 0.105538 -1 0 0 0 255 255 255 255 
-0.720537 -0.0278412 -1 0 0 0 255 255 255 255 
-0.364147 -0.831382 -1 0 0 0 255 255 255 255 
-0.940899 -0.0936571 -1 0 0 0 255 255 255 255 
0.0252134 -0.951571 -1 0 0 0 255 255 255 255 
0.190032 -0.696168 -1 0 0 0 255 255 255 255 
-0.462165 -0.561132 -1 0 0 0 255 255 255 255 
0.510077 0.0590567 -1 0 0 0 255 255 255 255 
0.253814 0.369077 -1 0 0 0 255 255 255 255 
-0.126231 -0.940974 -1 0 0 0 255 255 255 255 
-0.577767 -0.856328 -1 0 0 0 255 255 255 255 
0.249558 0.324463 -1 0 0 0 255 255 255 255 
0.631683 0.136271 -1 0 0 0 255 255 255 255 
-0.279193 -0.913288 -1 0 0 0 255 255 255 255 
-0.628795 -0.604287 -1 0 0 0 255 255 255 255 
0.222877 0.154012 -1 0 0 0 255 255 255 255 
-0.815921 0.193432 -1 0 0 0 255 255 255 255 
-0.601877 0.348962 -1 0 0 0 255 255 255 255 
-0.848525 -0.0487843 -1 0 0 0 255 255 255 255 
-0.618049 0.245831 -1 0 0 0 255 255 255 255 
-0.957346 0.0658929 -1 0 0 0 255 255 255 255 
-0.291851 -0.13152 -1 0 0 0 255 255 255 255 
0.652736 -0.0540655 -1 0 0 0 255 255 255 255 
-0.941366 0.14805 -1 0 0 0 255 255 255 255 
-0.750994 -0.174534 -1 0 0 0 255 255 255 255 
0.218541 -0.941946 -1 0 0 0 255 255 255 255 
-0.630143 -0.72718 -1 0 0 0 255 255 255 255 
-0.803383 -0.0191144 -1 0 0 0 255 255 255 255 
-0.339594 -0.633916 -1 0 0 0 255 255 255 255 
-0.538244 -0.581662 -1 0 0 0 255 255 255 255 
-0.598111 -0.619399 -1 0 0 0 255 255 255 255 
0.762343 -0.00971473 -1 0 0 0 255 255 255 255 
-0.140138 -0.979862 -1 0 0 0 255 255 255 255 
0.206823 -0.202238 -1 0 0 0 255 255 255 255 
0.0991733 -0.787661 -1 0 0 0 255 255 255 255 
0.519205 -0.0883574 -1 0 0 0 255 255 255 255 
-0.241258 0.345276 -1 0 0 0 255 255 255 255 
-0.567455 -0.136044 -1 0 0 0 255 255 255 255 
0.674112 0.318707 -1 0 0 0 255 255 255 255 
-0.500612 -0.125101 -1 0 0 0 255 255 255 255 
-0.522535 -0.55167 -1 0 0 0 255 255 255 255 
-0.311293 0.335087 -1 0 0 0 255 255 255 255 
-0.549564 -0.243302 -1 0 0 0 255 255 255 255 
-0.742367 0.136987 -1 0 0 0 255 255 255 255 
-0.411239 -0.839654 -1 0 0 0 255 255 255 255 
-0.441134 -0.102635 -1 0 0 0 255 255 255 255 
-0.568644 0.00951034 -1 0 0 0 255 255 255 255 
-0.515211 -0.578044 -1 0 0 0 255 255 255 255 
0.55626 0.000728524 -1 0 0 0 255 255 255 255 
0.576062 0.238613 -1 0 0 0 255 255 255 255 
0.703993 0.410482 -1 0 0 0 255 255 255 255 
-0.357693 -0.453564 -1 0 0 0 255 255 255 255 
0.925118 0.119457 -1 0 0 0 255 255 255 255 
-0.601445 -0.725885 -1 0 0 0 255 255 255 255 
-0.936712 0.0660926 -1 0 0 0 255 255 255 255 
-0.873925 0.0820715 -1 0 0 0 255 255 255 255 
0.0455736 -1.00852 -1 0 0 0 255 255 255 255 
-0.473404 -0.537721 -1 0 0 0 255 255 255 255 
-0.576312 -0.637248 -1 0 0 0 255 255 255 255 
0.287415 -0.792435 -1 0 0 0 255 255 255 255 
-0.438833 -0.0597632 -1 0 0 0 255 255 255 255 
-0.0401539 -0.960933 -1 0 0 0 255 255 255 255 
-0.482453 -0.821659 -1 0 0 0 255 255 255 255 
0.153917 -0.795255 -1 0 0 0 255 255 255 255 
-0.695469 0.306983 -1 0 0 0 255 255 255 255 
-0.678101 -0.710885 -1 0 0 0 255 255 255 255 
0.402272 0.0461766 -1 0 0 0 255 255 255 255 
0.297355 0.118925 -1 0 0 0 255 255 255 255 
-0.524886 -0.876557 -1 0 0 0 255 255 255 255 
-0.697577 0.213063 -1 0 0 0 255 255 255 255 
-0.398031 -0.267843 -1 0 0 0 255 255 255 255 
-0.607678 0.0249541 -1 0 0 0 255 255 255 255 
0.313932 0.0812985 -1 0 0 0 255 255 255 255 
0.714657 -0.0511938 -1 0 0 0 255 255 255 255 
0.0945329 -0.744785 -1 0 0 0 255 255 255 255 
-0.353908 -0.911319 -1 0 0 0 255 255 255 255 
-0.666045 -0.730992 -1 0 0 0 255 255 255 255 
-0.388615 -0.4799 -1 0 0 0 255 255 255 255 
-0.290261 -0.414141 -1 0 0 0 255 255 255 255 
0.400836 0.200468 -1 0 0 0 255 255 255 255 
0.756463 0.0231838 -1 0 0 0 255 255 255 255 
0.349724 -0.193671 -1 0 0 0 255 255 255 255 
-0.160902 0.386294 -1 0 0 0 255 255 255 255 
-0.604854 0.0731775 -1 0 0 0 255 255 255 255 
-0.77601 -0.0979739 -1 0 0 0 255 255 255 255 
-0.340133 -0.450536 -1 0 0 0 255 255 255 255 
-0.149196 -0.994396 -1 0 0 0 255 255 255 255 
-0.505717 0.376699 -1 0 0 0 255 255 255 255 
-0.491325 -0.845071 -1 0 0 0 255 255 255 255 
-0.0307723 -0.993163 -1 0 0 0 255 255 255 255 
-0.874633 -0.0750407 -1 0 0 0 255 255 255 255 
0.175269 0.281961 -1 0 0 0 255 255 255 255 
0.65429 0.087399 -1 0 0 0 255 255 255 255 
-0.760982 -0.106452 -1 0 0 0 255 255 255 255 
-0.0947496 -0.933675 -1 0 0 0 255 255 255 255 
0.918753 0.098546 -1 0 0 0 255 255 255 255 
-0.780213 0.23152 -1 0 0 0 255 255 255 255 
0.218358 -0.971347 -1 0 0 0 255 255 255 255 
-0.0851607 -0.197747 -1 0 0 0 255 255 255 255 
-0.563607 -0.80448 -1 0 0 0 255 255 255 255 
-0.232689 -0.902963 -1 0 0 0 255 255 255 255 
-0.710375 -0.0830564 -1 0 0 0 255 255 255 255 
-0.556858 -0.0512792 -1 0 0 0 255 255 255 255 
-0.0124523 -0.210411 -1 0 0 0 255 255 255 255 
-0.39864 -0.63672 -1 0 0 0 255 255 255 255 
-0.313879 -0.92972 -1 0 0 0 255 255 255 255 
-0.37389 -0.454707 -1 0 0 0 255 255 255 255 
0.0880796 -0.714427 -1 0 0 0 255 255 255 255 
0.944666 0.121267 -1 0 0 0 255 255 255 255 
0.51217 -0.155288 -1 0 0 0 255 255 255 255 
-0.60496 -0.0593391 -1 0 0 0 255 255 255 255 
-0.544212 -0.790227 -1 0 0 0 255 255 255 255 
-0.371221 -0.922855 -1 0 0 0 255 255 255 255 
0.887518 0.219591 -1 0 0 0 255 255 255 255 
-0.713707 -0.189952 -1 0 0 0 255 255 255 255 
-0.59543 -0.173198 -1 0 0 0 255 255 255 255 
-0.748452 0.19018 -1 0 0 0 255 255 255 255 
-0.133505 -0.870847 -1 0 0 0 255 255 255 255 
0.18711 0.414269 -1 0 0 0 255 255 255 255 
0.330884 -0.787154 -1 0 0 0 255 255 255 255 
-0.187119 -0.935218 -1 0 0 0 255 255 255 255 
0.287163 -0.707765 -1 0 0 0 255 255 255 255 
0.100733 -0.801883 -1 0 0 0 255 255 255 255 
-0.396333 0.323155 -1 0 0 0 255 255 255 255 
0.0809185 -0.513546 -1 0 0 0 255 255 255 255 
0.114758 -0.208665 -1 0 0 0 255 255 255 255 
-0.0564184 -0.793512 -1 0 0 0 255 255 255 255 
-0.252389 -0.934388 -1 0 0 0 255 255 255 255 
-0.240699 -0.276045 -1 0 0 0 255 255 255 255 
-0.144919 -0.240366 -1 0 0 0 255 255 255 255 
-0.867332 -0.0165326 -1 0 0 0 255 255 255 255 
0.705017 0.0765194 -1 0 0 0 255 255 255 255 
-0.512721 -0.560629 -1 0 0 0 255 255 255 255 
-0.770121 -0.0385333 -1 0 0 0 255 255 255 255 
0.601029 0.134603 -1 0 0 0 255 255 255 255 
-0.855204 0.0539783 -1 0 0 0 255 255 255 255 
0.815563 -0.0364183 -1 0 0 0 255 255 255 255 
-0.623103 0.26931 -1 0 0 0 255 255 255 255 
-0.90807 0.213963 -1 0 0 0 255 255 255 255 
0.265016 0.366273 -1 0 0 0 255 255 255 255 
-0.338107 -0.826716 -1 0 0 0 255 255 255 255 
0.000983437 -0.428189 -1 0 0 0 255 255 255 255 
-0.587776 -0.228299 -1 0 0 0 255 255 255 255 
0.308428 -0.0815762 -1 0 0 0 255 255 255 255 
-0.31818 -0.585915 -1 0 0 0 255 255 255 255 
0.224913 -0.626642 -1 0 0 0 255 255 255 255 
0.21414 -0.168851 -1 0 0 0 255 255 255 255 
0.357773 -0.818621 -1 0 0 0 255 255 255 255 
-0.872807 0.0150751 -1 0 0 0 255 255 255 255 
-0.375249 -0.17007 -1 0 0 0 255 255 255 255 
-0.940982 -0.0725308 -1 0 0 0 255 255 255 255 
0.427517 -0.172837 -1 0 0 0 255 255 255 255 
-0.456417 -0.537456 -1 0 0 0 255 255 255 255 
-0.0803203 -0.241495 -1 0 0 0 255 255 255 255 
0.374874 -0.776837 -1 0 0 0 255 255 255 255 
0.283627 0.172619 -1 0 0 0 255 255 255 255 
-0.957905 -0.0328494 -1 0 0 0 255 255 255 255 
-0.355371 0.335212 -1 0 0 0 255 255 255 255 
0.301109 -0.779568 -1 0 0 0 255 255 255 255 
-0.90862 0.0907835 -1 0 0 0 255 255 255 255 
0.26441 -0.627231 -1 0 0 0 255 255 255 255 
-0.761421 0.155579 -1 0 0 0 255 255 255 255 
-0.439944 -0.890202 -1 0 0 0 255 255 255 255 
0.575578 -0.0166958 -1 0 0 0 255 255 255 255 
-0.237387 -0.251303 -1 0 0 0 255 255 255 255 
0.331533 0.0516606 -1 0 0 0 255 255 255 255 
0.180122 0.321227 -1 0 0 0 255 255 255 255 
-0.389227 -0.6419 -1 0 0 0 255 255 255 255 
0.0218852 -0.267063 -1 0 0 0 255 255 255 255 
0.0260085 -0.823473 -1 0 0 0 255 255 255 255 
-0.384222 -0.575415 -1 0 0 0 255 255 255 255 
-0.3547 -0.910067 -1 0 0 0 255 255 255 255 
-0.0727261 -0.359569 -1 0 0 0 255 255 255 255 
-0.549596 -0.0584617 -1 0 0 0 255 255 255 255 
0.793835 0.110506 -1 0 0 0 255 255 255 255 
0.169341 -0.874302 -1 0 0 0 255 255 255 255 
-0.163124 -0.857174 -1 0 0 0 255 255 255 255 
-0.824428 -0.0136151 -1 0 0 0 255 255 255 255 
-0.493806 -0.844118 -1 0 0 0 255 255 255 255 
0.329852 -0.805516 -1 0 0 0 255 255 255 255 
0.639482 0.282803 -1 0 0 0 255 255 255 255 
-0.876263 0.00806205 -1 0 0 0 255 255 255 255 
0.333151 0.256005 -1 0 0 0 255 255 255 255 
-0.173306 -0.466675 -1 0 0 0 255 255 255 255 
-0.539115 -0.853856 -1 0 0 0 255 255 255 255 
-0.298165 -0.424058 -1 0 0 0 255 255 255 255 
-0.478798 0.285881 -1 0 0 0 255 255 255 255 
0.34278 0.0303315 -1 0 0 0 255 255 255 255 
-0.496618 -0.246374 -1 0 0 0 255 255 255 255 
-0.317114 -0.553807 -1 0 0 0 255 255 255 255 
-0.644159 -0.815211 -1 0 0 0 255 255 255 255 
-0.278744 -0.593704 -1 0 0 0 255 255 255 255 
-0.871057 0.191381 -1 0 0 0 255 255 255 255 
-0.0788617 -0.931574 -1 0 0 0 255 255 255 255 
-0.79204 0.119211 -1 0 0 0 255 255 255 255 
-0.272225 -0.226469 -1 0 0 0 255 255 255 255 
0.303945 -0.604566 -1 0 0 0 255 255 255 255 
0.206137 -0.95311 -1 0 0 0 255 255 255 255 
-0.390838 -0.41791 -1 0 0 0 255 255 255 255 
-0.546581 0.00599152 -1 0 0 0 255 255 255 255 
-0.856289 -0.0826001 -1 0 0 0 255 255 255 255 
-0.426199 -0.72218 -1 0 0 0 255 255 255 255 
0.642911 -0.0174055 -1 0 0 0 255 255 255 255 
0.414867 -0.0637475 -1 0 0 0 255 255 255 255 
0.28586 -0.736983 -1 0 0 0 255 255 255 255 
-0.260107 -0.168294 -1 0 0 0 255 255 255 255 
-0.156105 -0.353587 -1 0 0 0 255 255 255 255 
-0.173177 -0.930064 -1 0 0 0 255 255 255 255 
-0.0498723 -0.963056 -1 0 0 0 255 255 255 255 
-0.636262 -0.670094 -1 0 0 0 255 255 255 255 
-0.358451 -0.479431 -1 0 0 0 255 255 255 255 
-0.71619 -0.721504 -0.999954 0 0 0 255 255 255 255 
-0.514991 -0.503373 -1 0 0 0 255 255 255 255 
-0.865539 -0.0165785 -1 0 0 0 255 255 255 255 
-0.83296 0.262923 -1 0 0 0 255 255 255 255 
-0.390241 -0.877968 -1 0 0 0 255 255 255 255 
-0.0513205 -0.985625 -1 0 0 0 255 255 255 255 
0.35613 -0.746559 -1 0 0 0 255 255 255 255 
-0.705217 0.327096 -1 0 0 0 255 255 255 255 
-0.945007 0.127005 -1 0 0 0 255 255 255 255 
-0.423642 -0.870783 -1 0 0 0 255 255 255 255 
-0.0329301 -0.286946 -1 0 0 0 255 255 255 255 
0.29614 0.159472 -1 0 0 0 255 255 255 255 
0.377361 0.0700234 -1 0 0 0 255 255 255 255 
0.423753 0.00288155 -1 0 0 0 255 255 255 255 
0.604526 0.35723 -1 0 0 0 255 255 255 255 
0.696766 0.357494 -1 0 0 0 255 255 255 255 
0.684765 0.384674 -1 0 0 0 255 255 255 255 
0.689206 0.349942 -1 0 0 0 255 255 255 255 
0.637384 0.34466 -1 0 0 0 255 255 255 255 
0.656883 0.42072 -1 0 0 0 255 255 255 255 
0.82164 0.0606588 -1 0 0 0 255 255 255 255 
0.827285 0.0712871 -1 0 0 0 255 255 255 255 
0.705944 -0.0939851 -1 0 0 0 255 255 255 255 
0.881729 0.157253 -1 0 0 0 255 255 255 255 
0.855426 0.130006 -1 0 0 0 255 255 255 255 
0.883336 0.209538 -1 0 0 0 255 255 255 255 
0.909046 0.198076 -1 0 0 0 255 255 255 255 
0.879554 0.212223 -1 0 0 0 255 255 255 255 
0.905226 0.197989 -1 0 0 0 255 255 255 255 
0.904786 0.117651 -1 0 0 0 255 255 255 255 
0.915458 0.154497 -1 0 0 0 255 255 255 255 
0.877718 0.106377 -1 0 0 0 255 255 255 255 
0.87241 0.0964307 -1 0 0 0 255 255 255 255 
0.953607 0.193077 -1 0 0 0 255 255 255 255 
0.913973 0.134384 -1 0 0 0 255 255 255 255 
0.927186 0.149645 -1 0 0 0 255 255 255 255 
0.919099 0.164245 -1 0 0 0 255 255 255 255 
0.981768 0.192831 -1 0 0 0 255 255 255 255 
0.593887 0.234332 -1 0 0 0 255 255 255 255 
0.585116 0.281088 -1 0 0 0 255 255 255 255 
-0.229995 0.398151 -1 0 0 0 255 255 255 255 
0.0505407 -0.170946 -1 0 0 0 255 255 255 255 
-0.145433 -0.172472 -1 0 0 0 255 255 255 255 
-0.189921 -0.138025 -1 0 0 0 255 255 255 255 
-0.115515 -0.200496 -1 0 0 0 255 255 255 255 
-0.033371 -0.197477 -1 0 0 0 255 255 255 255 
0.0173001 -0.229426 -1 0 0 0 255 255 255 255 
0.0595344 -0.322224 -1 0 0 0 255 255 255 255 
0.0821517 -0.439152 -1 0 0 0 255 255 255 255 
0.0606293 -0.3566 -1 0 0 0 255 255 255 255 
0.0679505 -0.305735 -1 0 0 0 255 255 255 255 
0.0441565 -0.306976 -1 0 0 0 255 255 255 255 
0.0510875 -0.388323 -1 0 0 0 255 255 255 255 
0.144719 -0.476599 -1 0 0 0 255 255 255 255 
-0.0521458 -0.308664 -1 0 0 0 255 255 255 255 
-0.00597006 -0.293344 -1 0 0 0 255 255 255 255 
0.0531451 -0.441121 -1 0 0 0 255 255 255 255 
0.0441512 -0.367544 -1 0 0 0 255 255 255 255 
0.0271931 -0.379913 -1 0 0 0 255 255 255 255 
-0.0263047 -0.374145 -1 0 0 0 255 255 255 255 
-0.114206 -0.341271 -1 0 0 0 255 255 255 255 
-0.131047 -0.40456 -1 0 0 0 255 255 255 255 
-0.481712 -0.57474 -1 0 0 0 255 255 255 255 
-0.406316 -0.575019 -1 0 0 0 255 255 255 255 
0.720113 0.06148 -1 0 0 0 255 255 255 255 
0.464439 0.0873336 -1 0 0 0 255 255 255 255 
0.576213 0.0543172 -1 0 0 0 255 255 255 255 
0.553879 -0.13988 -1 0 0 0 255 255 255 255 
0.659322 -0.116114 -1 0 0 0 255 255 255 255 
0.723319 -0.0762905 -1 0 0 0 255 255 255 255 
-0.470843 0.429251 -1 0 0 0 255 255 255 255 
0.262893 0.396893 -1 0 0 0 255 255 255 255 
0.478237 -0.0390626 -1 0 0 0 255 255 255 255 
0.493873 -0.100214 -1 0 0 0 255 255 255 255 
0.253167 -0.123576 -1 0 0 0 255 255 255 255 
-0.692134 0.0562612 -1 0 0 0 255 255 255 255 
-0.657285 0.0206584 -1 0 0 0 255 255 255 255 
-0.630747 -0.0173329 -1 0 0 0 255 255 255 255 
-0.627092 0.189687 -1 0 0 0 255 255 255 255 
-0.681716 -0.0178724 -1 0 0 0 255 255 255 255 
0.591157 0.237362 -1 0 0 0 255 255 255 255 
0.820721 0.265876 -1 0 0 0 255 255 255 255 
0.958304 0.257267 -1 0 0 0 255 255 255 255 
-0.750436 0.282751 -1 0 0 0 255 255 255 255 
-0.717179 0.154465 -1 0 0 0 255 255 255 255 
-0.33683 -0.256506 -1 0 0 0 255 255 255 255 
0.243053 -0.467255 -1 0 0 0 255 255 255 255 
-0.987424 0.231035 -1 0 0 0 255 255 255 255 
0.0320871 -0.840678 -1 0 0 0 255 255 255 255 
0.606233 -0.0322846 -1 0 0 0 255 255 255 255 
-0.24788 -0.221326 -1 0 0 0 255 255 255 255 
0.161804 -1.02274 -1 0 0 0 255 255 255 255 
-0.566504 0.362825 -1 0 0 0 255 255 255 255 
-0.580328 -0.24287 -1 0 0 0 255 255 255 255 
-0.596968 -0.102438 -1 0 0 0 255 255 255 255 
-0.913671 -0.123087 -1 0 0 0 255 255 255 255 
-0.189548 -0.773504 -1 0 0 0 255 255 255 255 
0.455247 0.128699 -1 0 0 0 255 255 255 255 
-0.713011 -0.0076117 -1 0 0 0 255 255 255 255 
0.0714585 -0.360436 -1 0 0 0 255 255 255 255 
0.594675 0.322557 -1 0 0 0 255 255 255 255 
0.347838 -0.861831 -1 0 0 0 255 255 255 255 
-0.729627 -0.000502764 -1 0 0 0 255 255 255 255 
-0.457226 -0.305425 -1 0 0 0 255 255 255 255 
-0.0581201 -0.97447 -1 0 0 0 255 255 255 255 
-0.0214156 -0.234723 -1 0 0 0 255 255 255 255 
0.818828 0.0268309 -1 0 0 0 255 255 255 255 
0.607956 0.3645 -1 0 0 0 255 255 255 255 
0.124184 -0.877215 -1 0 0 0 255 255 255 255 
-0.290449 0.475253 -1 0 0 0 255 255 255 255 
0.303354 0.020796 -1 0 0 0 255 255 255 255 
0.464419 0.0548576 -1 0 0 0 255 255 255 255 
-0.291283 -0.504741 -1 0 0 0 255 255 255 255 
0.428536 0.0521868 -1 0 0 0 255 255 255 255 
-0.205922 -0.943719 -1 0 0 0 255 255 255 255 
0.196196 -0.552099 -1 0 0 0 255 255 255 255 
-0.453343 0.00518992 -1 0 0 0 255 255 255 255 
-0.409872 -0.892825 -1 0 0 0 255 255 255 255 
-0.994693 -0.0190311 -1 0 0 0 255 255 255 255 
-0.56889 -0.778264 -1 0 0 0 255 255 255 255 
-0.56678 -0.866148 -1 0 0 0 255 255 255 255 
-0.714895 -0.67652 -1 0 0 0 255 255 255 255 
0.786963 0.542967 -1 0 0 0 255 255 255 255 
-0.657824 -0.246726 -1 0 0 0 255 255 255 255 
-0.0122753 -0.5219 -1 0 0 0 255 255 255 255 
0.39202 -0.00215497 -1 0 0 0 255 255 255 255 
-0.399449 -0.428482 -1 0 0 0 255 255 255 255 
-0.645445 -0.229488 -1 0 0 0 255 255 255 255 
-0.476556 -0.570189 -1 0 0 0 255 255 255 255 
-0.495653 -0.572146 -1 0 0 0 255 255 255 255 
-0.725529 -0.549496 -0.999954 0 0 0 255 255 255 255 
0.297041 -0.621057 -1 0 0 0 255 255 255 255 
-0.180485 -0.0590628 -1 0 0 0 255 255 255 255 
0.272653 -0.187957 -1 0 0 0 255 255 255 255 
0.274052 0.171459 -1 0 0 0 255 255 255 255 
-0.275031 0.0883814 -1 0 0 0 255 255 255 255 
1.03397 0.0926634 -1 0 0 0 255 255 255 255 
1.04516 0.17788 -1 0 0 0 255 255 255 255 
0.878134 -0.0202183 -1 0 0 0 255 255 255 255 
